<?xml version="1.0" encoding="UTF-8" standalone="no"?>
<!-- Created with Inkscape (http://www.inkscape.org/) -->

<svg
   width="4in"
   height="4in"
   viewBox="0 0 101.6 101.6"
   version="1.1"
   id="svg5"
   inkscape:version="1.3.2 (091e20e, 2023-11-25, custom)"
   xml:space="preserve"
   sodipodi:docname="joystick.svg"
   xmlns:inkscape="http://www.inkscape.org/namespaces/inkscape"
   xmlns:sodipodi="http://sodipodi.sourceforge.net/DTD/sodipodi-0.dtd"
   xmlns="http://www.w3.org/2000/svg"
   xmlns:svg="http://www.w3.org/2000/svg"><sodipodi:namedview
     id="namedview7"
     pagecolor="#ffffff"
     bordercolor="#000000"
     borderopacity="0.25"
     inkscape:showpageshadow="2"
     inkscape:pageopacity="0.0"
     inkscape:pagecheckerboard="false"
     inkscape:deskcolor="#d1d1d1"
     inkscape:document-units="mm"
     showgrid="false"
     inkscape:zoom="0.83784788"
     inkscape:cx="62.660539"
     inkscape:cy="164.7077"
     inkscape:window-width="1920"
     inkscape:window-height="1130"
     inkscape:window-x="-6"
     inkscape:window-y="-6"
     inkscape:window-maximized="1"
     inkscape:current-layer="layer1" /><defs
     id="defs2" /><g
     inkscape:label="Layer 1"
     inkscape:groupmode="layer"
     id="layer1"><path
       style="fill:#000000;stroke-width:0.325709"
       d="M 7.7544364,99.302408 C 6.6351518,99.198911 5.4728019,98.795598 4.2686439,98.092902 3.4202715,97.59783 2.3016318,96.554273 1.6334679,95.634593 0.90459504,94.631352 0.24582791,92.999323 0.0715049,91.764975 -0.02301602,91.095707 -0.02421137,72.280078 0.07020206,71.599482 0.51029756,68.427676 2.8856453,65.527103 5.901605,64.47867 7.7446358,63.837979 4.0567177,63.886611 50.799988,63.886611 c 46.373487,0 43.040176,-0.04036 44.769117,0.542013 1.726068,0.581402 3.304691,1.760392 4.38594,3.275622 0.762395,1.068393 1.402035,2.650618 1.574725,3.895236 0.0936,0.674733 0.0936,19.391242 2e-5,20.122404 -0.0395,0.308083 -0.10421,0.6571 -0.14391,0.775596 -0.0397,0.118493 -0.14085,0.448121 -0.22476,0.732505 -0.0839,0.284387 -0.24214,0.687654 -0.35161,0.896154 -0.10947,0.2085 -0.19984,0.421787 -0.20084,0.473976 -0.006,0.306942 -1.317441,1.935203 -2.1604,2.682 -0.678365,0.600983 -2.434555,1.592485 -2.820671,1.592485 -0.08747,0 -0.187537,0.0285 -0.222372,0.06334 -0.03483,0.03484 -0.303059,0.139912 -0.596058,0.233505 -0.554143,0.17701 -85.1799549,0.30432 -87.0547521,0.130961 z M 13.257667,59.534154 c -0.09894,-0.257841 0.0085,-3.21887 0.120832,-3.331243 0.0587,-0.0587 0.106729,-0.166281 0.106729,-0.239068 0,-0.871768 1.797217,-2.576405 3.059295,-2.9017 0.448859,-0.115692 8.398724,-0.141616 8.790087,-0.02866 2.43585,0.703015 3.534913,2.378058 3.474062,5.294692 l -0.02697,1.29266 -7.736943,0.02202 c -6.848715,0.01948 -7.742699,0.007 -7.787094,-0.108686 z m 24.99294,0.0039 c -0.136511,-0.355733 1.507524,-3.91938 1.883399,-4.082505 0.03641,-0.0158 0.06619,-0.07437 0.06619,-0.130147 0,-0.05578 0.08785,-0.197973 0.195227,-0.315984 0.107377,-0.118008 0.313206,-0.376869 0.457394,-0.575242 1.495645,-2.0577 4.594736,-4.243263 7.189514,-5.070243 0.260688,-0.08308 0.551534,-0.180238 0.646328,-0.215896 0.384504,-0.144645 1.264392,-0.342588 1.52835,-0.343826 0.154754,-6.51e-4 0.330058,-0.03221 0.389555,-0.07 0.08576,-0.05445 0.103621,-1.693006 0.08618,-7.90545 l -0.02202,-7.836766 -0.30162,-0.02794 c -0.16589,-0.01536 -0.573079,-0.106286 -0.90486,-0.202048 -0.331784,-0.09576 -0.73897,-0.20494 -0.904863,-0.242617 -0.40516,-0.09202 -0.886207,-0.266474 -0.986731,-0.357845 -0.04503,-0.04093 -0.137488,-0.07442 -0.205471,-0.07442 -0.343542,0 -3.072167,-1.48582 -3.59071,-1.955249 -0.09483,-0.08585 -0.311899,-0.260197 -0.482366,-0.387435 -1.111054,-0.829293 -2.968992,-2.949054 -3.57388,-4.077525 -0.05081,-0.0948 -0.221838,-0.405033 -0.380048,-0.689418 -0.362902,-0.652319 -0.387845,-0.702171 -0.560504,-1.120305 -0.07829,-0.189591 -0.177,-0.422269 -0.219362,-0.517064 -0.04236,-0.0948 -0.142296,-0.385644 -0.222072,-0.64633 -0.07978,-0.260687 -0.178222,-0.510816 -0.218769,-0.555844 -0.04055,-0.04503 -0.07372,-0.202086 -0.07372,-0.349018 0,-0.146933 -0.03182,-0.303991 -0.07074,-0.349018 -0.282664,-0.327108 -0.586333,-3.493088 -0.456274,-4.756988 0.161295,-1.567418 0.190768,-1.743683 0.522389,-3.123929 0.322704,-1.343093 1.75835,-4.2937543 2.439682,-5.0142206 0.05895,-0.062331 0.217236,-0.2606458 0.351754,-0.4406981 C 41.160421,7.6652418 41.795473,6.9695034 42.259453,6.5408305 42.4678,6.3483362 42.753209,6.0813456 42.893691,5.947518 43.203109,5.6527606 44.570942,4.6567083 45.010552,4.406026 45.75231,3.9830498 46.9101,3.4110582 47.309814,3.2701074 47.5468,3.1865368 47.818257,3.0855897 47.913051,3.0457815 48.24905,2.9046808 48.693158,2.7652967 49.033358,2.694178 c 0.189589,-0.039636 0.616168,-0.1344529 0.947949,-0.210708 1.256939,-0.2888914 4.393737,-0.3637134 5.429171,-0.1295054 0.189592,0.042883 0.654953,0.1436803 1.034131,0.2239937 0.704207,0.1491555 1.743185,0.4655693 2.283696,0.6954811 0.165894,0.070562 0.398571,0.1689781 0.517064,0.2187009 0.252761,0.1060608 0.312473,0.1359577 1.138629,0.5700992 0.598169,0.3143358 1.28269,0.725238 1.483027,0.8902229 0.05111,0.042098 0.306219,0.2406342 0.566907,0.4411996 1.424533,1.0959898 3.705624,3.6292773 3.705624,4.1153174 0,0.047228 0.0313,0.085867 0.06956,0.085867 0.0859,0 1.223105,2.2571896 1.223105,2.4276726 0,0.06775 0.03081,0.160018 0.06847,0.205044 0.03766,0.04503 0.139192,0.314548 0.225619,0.598935 0.08643,0.284383 0.187863,0.614011 0.22541,0.732504 0.03755,0.118496 0.127789,0.486903 0.20053,0.818687 0.568995,2.595218 0.487939,4.88441 -0.273098,7.712868 -0.09393,0.349121 -0.402603,1.19982 -0.5941,1.637369 -0.299409,0.684105 -1.101332,2.198048 -1.232482,2.326788 -0.02414,0.0237 -0.15664,0.217598 -0.294442,0.430887 -0.676837,1.04762 -2.645159,3.055333 -3.675163,3.748713 -0.352043,0.236988 -0.653002,0.459971 -0.668802,0.49552 -0.0158,0.03555 -0.07091,0.06463 -0.12248,0.06463 -0.05156,0 -0.154976,0.05493 -0.229804,0.122075 -0.359724,0.322767 -2.673708,1.360149 -3.583147,1.60636 -1.146488,0.310387 -1.649625,0.425998 -1.853939,0.425998 -0.344024,0 -0.338601,-0.131511 -0.333677,8.092334 0.0047,7.867348 -0.0013,7.764294 0.448154,7.764294 0.443984,0 2.385135,0.533818 2.837054,0.780191 0.08231,0.04487 0.19398,0.08158 0.248168,0.08158 0.258962,0 2.911974,1.468533 2.991831,1.656083 0.0158,0.0371 0.06592,0.06746 0.11136,0.06746 0.04545,0 0.129473,0.0395 0.18672,0.08778 0.05724,0.04827 0.187273,0.15492 0.288946,0.236986 2.332885,1.882982 3.947704,3.986783 4.943298,6.440157 0.291282,0.717802 0.50197,1.375648 0.461523,1.441086 -0.08586,0.138928 -29.504165,0.0804 -29.557581,-0.0588 z"
       id="path1" /></g></svg>
