<?xml version="1.0" encoding="UTF-8" standalone="no"?>
<!-- Created with Inkscape (http://www.inkscape.org/) -->

<svg
   width="4in"
   height="4in"
   viewBox="0 0 101.6 101.6"
   version="1.1"
   id="svg5"
   inkscape:version="1.3.2 (091e20e, 2023-11-25, custom)"
   xml:space="preserve"
   sodipodi:docname="poli.svg"
   xmlns:inkscape="http://www.inkscape.org/namespaces/inkscape"
   xmlns:sodipodi="http://sodipodi.sourceforge.net/DTD/sodipodi-0.dtd"
   xmlns="http://www.w3.org/2000/svg"
   xmlns:svg="http://www.w3.org/2000/svg"><sodipodi:namedview
     id="namedview7"
     pagecolor="#ffffff"
     bordercolor="#000000"
     borderopacity="0.25"
     inkscape:showpageshadow="2"
     inkscape:pageopacity="0.0"
     inkscape:pagecheckerboard="false"
     inkscape:deskcolor="#d1d1d1"
     inkscape:document-units="mm"
     showgrid="false"
     inkscape:zoom="0.83784788"
     inkscape:cx="62.660539"
     inkscape:cy="164.7077"
     inkscape:window-width="1920"
     inkscape:window-height="1130"
     inkscape:window-x="-6"
     inkscape:window-y="-6"
     inkscape:window-maximized="1"
     inkscape:current-layer="layer1" /><defs
     id="defs2" /><g
     inkscape:label="Layer 1"
     inkscape:groupmode="layer"
     id="layer1"><path
       style="fill:#000000;stroke-width:1.0783"
       d="m 0.10729764,101.49027 c -0.14306352,-0.14341 -0.14306352,-5.173693 0,-5.317096 0.0735111,-0.07368 0.78221125,-0.100326 2.66923436,-0.100326 h 2.56915 L 5.3245121,85.476293 5.3033421,74.879734 2.7219932,74.857602 C 0.78435044,74.840987 0.12432526,74.809712 0.07520548,74.732198 -0.0010305,74.611886 -0.01735601,69.648859 0.05783849,69.452439 c 0.07777935,-0.203173 101.40654151,-0.203173 101.48432151,0 0.0661,0.172609 0.0661,5.080643 0,5.253254 -0.0447,0.1167 -0.35832,0.132241 -2.668913,0.132241 h -2.61829 v 10.617457 10.61746 h 2.568831 c 1.886772,0 2.595402,0.02663 2.668912,0.100326 0.14307,0.143403 0.14307,5.173683 0,5.317103 -0.14596,0.14629 -101.23944456,0.14629 -101.38540225,0 z M 21.338002,85.476293 l -0.02117,-10.596559 -2.564659,-0.02211 -2.56466,-0.02211 v 10.618662 10.618668 h 2.58583 2.58583 z m 16.013488,0 -0.02117,-10.596559 -2.56466,-0.02211 -2.564661,-0.02211 v 10.618662 10.618668 h 2.585831 2.585831 z m 16.01349,0 -0.02117,-10.596559 -2.56466,-0.02211 -2.564661,-0.02211 v 10.618662 10.618668 h 2.585832 2.58583 z m 16.013489,0 -0.02117,-10.596559 -2.564661,-0.02211 -2.56466,-0.02211 v 10.618662 10.618668 h 2.58583 2.585832 z m 16.01349,0 -0.02117,-10.596559 -2.564661,-0.02211 -2.56466,-0.02211 v 10.618662 10.618668 h 2.585831 2.585831 z M 21.462788,64.081503 c -0.08238,-0.03332 -0.104256,-1.715797 -0.104256,-8.019196 v -7.977028 h -2.568831 c -1.886775,0 -2.595404,-0.02663 -2.668915,-0.100326 -0.143063,-0.143405 -0.143063,-5.173687 0,-5.31709 0.145887,-0.146234 69.212539,-0.146234 69.358426,0 0.07348,0.07366 0.100087,0.780285 0.100087,2.658545 0,3.133133 0.37564,2.758867 -2.768999,2.758867 h -2.568831 v 7.925474 c 0,6.052787 -0.02365,7.949178 -0.100088,8.025795 -0.106054,0.106308 -10.338663,0.154122 -10.610456,0.04958 -0.119024,-0.04579 -0.131927,-0.830715 -0.131927,-8.025795 v -7.975053 h -2.58551 -2.585512 v 7.925474 c 0,6.052787 -0.02365,7.949178 -0.100088,8.025795 -0.106054,0.106308 -10.338662,0.154122 -10.610455,0.04958 -0.119024,-0.04579 -0.131927,-0.830715 -0.131927,-8.025795 v -7.975051 h -2.585511 -2.585512 v 7.925474 c 0,6.052787 -0.02365,7.949178 -0.100088,8.025795 -0.106054,0.106307 -10.338663,0.154122 -10.610455,0.04958 -0.119025,-0.04579 -0.131928,-0.830715 -0.131928,-8.025796 v -7.975051 h -2.58551 -2.585512 v 7.925465 c 0,6.052788 -0.02365,7.949178 -0.100088,8.025796 -0.100411,0.10065 -10.392881,0.14415 -10.638127,0.04496 z m 0,-26.752654 c -0.175635,-0.07104 -0.148673,-5.34379 0.02767,-5.41162 0.07256,-0.02791 1.346935,-0.05075 2.831943,-0.05075 h 2.700017 l 0.04184,-0.271707 c 0.08948,-0.581062 0.14059,-0.879603 0.254027,-1.483936 0.257236,-1.370433 0.316929,-1.63334 0.388177,-1.709661 0.04078,-0.04368 0.07414,-0.140804 0.07414,-0.215826 0,-0.157817 0.310701,-1.231517 0.411299,-1.421338 0.03735,-0.07048 0.09434,-0.24875 0.126636,-0.396152 0.0323,-0.147401 0.09337,-0.289466 0.135711,-0.315697 0.04234,-0.02623 0.07826,-0.11131 0.07982,-0.189064 0.0015,-0.07775 0.07535,-0.291853 0.163977,-0.475777 0.08863,-0.183925 0.16242,-0.381435 0.163976,-0.438911 0.0015,-0.05748 0.04037,-0.104504 0.08624,-0.104504 0.04587,0 0.08341,-0.0552 0.08341,-0.122674 0,-0.143147 0.845779,-1.828627 0.93829,-1.869841 0.0344,-0.01533 0.06255,-0.07417 0.06255,-0.130744 0,-0.05659 0.168892,-0.355305 0.375317,-0.663827 0.206424,-0.308522 0.375316,-0.594993 0.375316,-0.636603 0,-0.04161 0.0495,-0.125367 0.110004,-0.186127 0.06051,-0.06076 0.254955,-0.317389 0.432119,-0.570286 0.177164,-0.252896 0.362235,-0.502227 0.411268,-0.55407 0.04904,-0.05184 0.145451,-0.18062 0.214259,-0.286174 0.06881,-0.105552 0.24069,-0.326483 0.381959,-0.490956 0.141269,-0.164471 0.366459,-0.428768 0.500421,-0.587326 0.687956,-0.814261 2.26344,-2.316728 3.162695,-3.016118 0.321103,-0.249738 0.602591,-0.476326 0.625526,-0.503532 0.09389,-0.111373 2.001407,-1.335022 2.543809,-1.631825 1.156662,-0.632928 2.557217,-1.290203 2.749227,-1.290203 0.06509,0 0.139764,-0.03473 0.165933,-0.07716 0.02617,-0.04244 0.162273,-0.10242 0.302453,-0.133283 0.14018,-0.03086 0.355556,-0.108767 0.478615,-0.173121 0.123057,-0.06435 0.305972,-0.117241 0.406477,-0.117523 0.100508,-2.85e-4 0.203914,-0.03486 0.229797,-0.07684 0.02588,-0.04199 0.20493,-0.103057 0.397882,-0.135739 0.192952,-0.03268 0.408561,-0.09086 0.479133,-0.129299 0.134534,-0.07327 0.639119,-0.19614 1.436092,-0.349683 0.603669,-0.1163 0.566294,0.08131 0.567664,-3.0015045 0.0014,-3.0692506 0.06152,-2.8284062 -0.706504,-2.8284062 -0.73444,0 -0.879159,-0.1065853 -0.724989,-0.5339522 0.05399,-0.1496761 0.09841,-0.3447091 0.09869,-0.4334068 2.82e-4,-0.088698 0.05078,-0.2578283 0.112226,-0.3758459 0.06144,-0.1180175 0.136342,-0.312947 0.166446,-0.4331769 0.237302,-0.9477402 2.434768,-3.2397408 3.106115,-3.2397408 0.05422,0 0.206084,-0.0562 0.337476,-0.12488807 0.398677,-0.20841904 3.711052,-0.17553638 4.158862,0.0412855 0.183488,0.0888413 0.380529,0.16280711 0.437869,0.16436733 0.05734,0.001566 0.104255,0.0404574 0.104255,0.0864392 0,0.0459807 0.05432,0.0836021 0.120688,0.0836021 0.120652,0 1.044492,0.66545944 1.345974,0.96953074 0.316765,0.3194851 0.785236,0.9307759 0.785236,1.0246282 0,0.052741 0.02814,0.095902 0.06255,0.095913 0.08285,2.62e-5 0.60129,1.0878578 0.696533,1.4615533 0.04122,0.1617383 0.110093,0.4326909 0.153044,0.602117 0.132688,0.5233939 0.0248,0.6115751 -0.748257,0.6115751 H 55.22039 v 2.8670864 2.8670785 l 0.521273,0.09247 c 0.74957,0.132957 1.335695,0.272405 1.483621,0.352974 0.07058,0.03843 0.286182,0.09662 0.479133,0.129299 0.192952,0.03268 0.369981,0.09049 0.393398,0.128465 0.02341,0.03798 0.192308,0.09441 0.375315,0.125403 0.183008,0.03099 0.353918,0.0907 0.379801,0.132678 0.02588,0.04199 0.104859,0.07633 0.175492,0.07633 0.07063,0 0.265461,0.05921 0.432946,0.131597 0.167484,0.07237 0.417112,0.17989 0.554728,0.238915 0.831958,0.356834 1.649165,0.739164 1.709773,0.799916 0.02294,0.02299 0.191829,0.114746 0.375317,0.2039 0.504709,0.245233 1.330842,0.73998 1.362258,0.815817 0.01529,0.03691 0.07523,0.06711 0.133195,0.06711 0.09281,0 0.206904,0.07829 0.606967,0.416462 0.0554,0.04683 0.122747,0.08514 0.149649,0.08514 0.04274,0 0.626744,0.423152 1.413582,1.024228 1.194004,0.912114 3.031896,2.827118 4.069816,4.240571 0.355389,0.483973 0.676602,0.917674 0.713805,0.963782 0.06819,0.08451 0.612682,0.974659 1.038963,1.69852 0.443838,0.753674 1.395933,2.771163 1.395933,2.95798 0,0.06432 0.03306,0.152688 0.07347,0.196371 0.117191,0.126683 0.781996,2.159035 0.937203,2.865084 0.28199,1.282806 0.347392,1.627107 0.423692,2.230459 0.04652,0.367849 0.09819,0.715843 0.114822,0.773319 0.0234,0.08086 0.649629,0.104504 2.7685,0.104504 3.341993,0 2.938424,-0.378908 2.938424,2.758868 0,1.878259 -0.0266,2.584887 -0.100087,2.658545 -0.100541,0.100779 -58.430098,0.145464 -58.678596,0.04496 z"
       id="path1" /></g></svg>
